<?xml version="1.0" encoding="UTF-8" standalone="no"?> <svg id="Layer_1" data-name="Layer 1" xmlns="http://www.w3.org/2000/svg" viewBox="0 0 128 128"><defs><style>.cls-1{fill:#2d3e50;}.cls-2{fill:#1d75b8;}</style></defs><title>v</title><path class="cls-1" d="M123.44306,77.60455l-9.46024,5.81021-1.34827.82687-.797-.43951-10.78614-5.9592a.22392.22392,0,0,1,.149-.41714l10.55522,2.0187,7.19572-8.4621c-.48416-.6853-.91621-1.28866-1.28866-1.8101l.11921-.11916-.77473-.78959a.79074.79074,0,0,1-.0596-.08193h-.01487L102.01972,53.075a14.81882,14.81882,0,0,0-10.48821-4.38H68.90889a34.08734,34.08734,0,0,0-17.72862,4.96847l-23.889,14.51815h-.44692L12.08046,74.10351A11.31828,11.31828,0,0,0,6.3,77.0757l8.50675-1.14718,1.61647-.216.56609.73744,7.68738,10.12322a.229.229,0,0,1-.31285.32776l-9.11757-6.30187L2.85114,86.588V97.09862A2.49716,2.49716,0,0,0,5.354,99.594H16.08057a12.8931,12.8931,0,0,0,25.17017,0H48.5508L45.79466,96.391l-1.03542-1.19932.30539-.84915,4.164-11.60556a.22692.22692,0,0,1,.43951.08193l-.31289,10.7415L59.31457,99.594H86.07883a12.89539,12.89539,0,0,0,25.17021,0h11.40442a2.49556,2.49556,0,0,0,2.4954-2.4954V83.42222A10.80377,10.80377,0,0,0,123.44306,77.60455ZM28.66941,104.6817a7.88849,7.88849,0,1,1,0-15.777c.11171,0,.22346,0,.33517.00741a7.88851,7.88851,0,0,1-.33517,15.76957Zm8.27583-36.50012,16.84219-10.235a29.111,29.111,0,0,1,15.12147-4.23844H74.086V68.18159ZM72.17156,87.58623H60.36491a2.49915,2.49915,0,1,1,0-4.9983H72.17156a2.49915,2.49915,0,1,1,0,4.9983Zm6.45086-19.40464V53.70818H91.53151a9.74791,9.74791,0,0,1,6.9127,2.89017l11.4342,11.58324ZM98.66767,104.6817a7.8885,7.8885,0,1,1,7.88106-7.88851A7.89364,7.89364,0,0,1,98.66767,104.6817Z"/><circle class="cls-1" cx="29.0055" cy="96.79404" r="3.31577"/><circle class="cls-1" cx="99.00314" cy="96.79404" r="3.31577"/><path class="cls-2" d="M18.38233,66.364l7.55325-3.02429L47.56007,50.19968c.149-8.01513-3.61279-16.41759-7.95553-22.78652-1.83247-2.69654-3.866-5.64631-3.866-9.05051,0-.2682-.70021.62569-.7449.6853a7.71157,7.71157,0,0,0-1.11735,2.34645c-1.02051,3.54569.52144,7.39685-.01491,11.04684a9.48346,9.48346,0,0,1-5.475,7.18831c-3.64257,1.43765-6.24972-.946-6.81586-4.49177-.52144-3.30736.3203-6.98717-1.9144-9.83265-.05215-.06706-.83428-1.06525-.83428-.76727-.09684,3.367-1.83988,6.354-3.48613,9.18463C10.397,42.21433,7.76,54.49032,14.48648,62.80339A17.73574,17.73574,0,0,0,18.38233,66.364Z"/></svg>